<svg xmlns="http://www.w3.org/2000/svg" xmlns:xlink="http://www.w3.org/1999/xlink" width="500" zoomAndPan="magnify" viewBox="0 0 375 374.999991" height="500" preserveAspectRatio="xMidYMid meet" version="1.0"><defs><g/><clipPath id="fe7fcfe4a8"><path d="M 164.949219 125.15625 L 209.949219 125.15625 L 209.949219 194.90625 L 164.949219 194.90625 Z M 164.949219 125.15625 " clip-rule="nonzero"/></clipPath></defs><rect x="-37.5" width="450" fill="#ffffff" y="-37.499999" height="449.999989" fill-opacity="1"/><rect x="-37.5" width="450" fill="#0c1347" y="-37.499999" height="449.999989" fill-opacity="1"/><g clip-path="url(#fe7fcfe4a8)"><path fill="#cca23f" d="M 175.332031 130.46875 L 193.605469 130.46875 C 193.894531 130.46875 194.132812 130.707031 194.132812 130.996094 L 194.132812 160.171875 C 194.132812 167.96875 191.097656 175.296875 185.585938 180.808594 C 180.195312 186.199219 173.066406 189.222656 165.464844 189.351562 C 165.175781 189.355469 164.949219 189.59375 164.949219 189.878906 L 164.949219 194.101562 C 164.949219 194.398438 165.191406 194.632812 165.488281 194.628906 C 173.511719 194.507812 181.09375 191.65625 187.167969 186.519531 C 194.984375 179.902344 199.410156 170.117188 199.410156 159.878906 L 199.410156 125.71875 C 199.410156 125.425781 199.175781 125.191406 198.882812 125.191406 L 175.332031 125.191406 C 175.042969 125.191406 174.804688 125.425781 174.804688 125.71875 L 174.804688 129.941406 C 174.804688 130.234375 175.042969 130.46875 175.332031 130.46875 Z M 204.765625 125.71875 L 204.765625 146.886719 C 204.765625 147.179688 205.003906 147.417969 205.292969 147.417969 L 209.515625 147.417969 C 209.808594 147.417969 210.042969 147.179688 210.042969 146.886719 L 210.042969 125.71875 C 210.042969 125.425781 209.808594 125.191406 209.515625 125.191406 L 205.292969 125.191406 C 205.003906 125.191406 204.765625 125.425781 204.765625 125.71875 Z M 165.488281 184.074219 C 165.191406 184.078125 164.949219 183.839844 164.949219 183.542969 L 164.949219 179.320312 C 164.949219 179.035156 165.175781 178.800781 165.460938 178.792969 C 175.496094 178.523438 183.578125 170.273438 183.578125 160.171875 L 183.578125 138.914062 C 183.578125 138.621094 183.8125 138.386719 184.105469 138.386719 L 188.328125 138.386719 C 188.617188 138.386719 188.855469 138.621094 188.855469 138.914062 L 188.855469 160.171875 C 188.855469 173.171875 178.421875 183.785156 165.488281 184.074219 " fill-opacity="1" fill-rule="nonzero"/></g><g fill="#ffffff" fill-opacity="1"><g transform="translate(141.076051, 226.437729)"><g><path d="M 11.765625 -17.265625 L 11.765625 -5.59375 C 11.765625 -3.769531 11.234375 -2.347656 10.171875 -1.328125 C 9.117188 -0.304688 7.664062 0.203125 5.8125 0.203125 C 3.46875 0.203125 1.488281 -0.71875 -0.125 -2.5625 L 1.890625 -5.484375 C 3.128906 -4.210938 4.335938 -3.578125 5.515625 -3.578125 C 6.742188 -3.578125 7.359375 -4.28125 7.359375 -5.6875 L 7.359375 -13.71875 L 1.453125 -13.71875 L 1.453125 -17.265625 Z M 11.765625 -17.265625 "/></g></g></g><g fill="#ffffff" fill-opacity="1"><g transform="translate(156.465319, 226.437729)"><g><path d="M 15.765625 -14.4375 L 6.546875 -3.46875 L 15.90625 -3.46875 L 15.90625 0 L 0.6875 0 L 0.6875 -2.8125 L 9.921875 -13.765625 L 1.015625 -13.765625 L 1.015625 -17.234375 L 15.765625 -17.234375 Z M 15.765625 -14.4375 "/></g></g></g><g fill="#ffffff" fill-opacity="1"><g transform="translate(175.27692, 226.437729)"><g><path d="M 15.21875 -13.796875 L 6.109375 -13.796875 L 6.109375 -10.359375 L 14.328125 -10.359375 L 14.328125 -6.921875 L 6.109375 -6.921875 L 6.109375 -3.453125 L 15.484375 -3.453125 L 15.484375 0 L 1.71875 0 L 1.71875 -17.234375 L 15.21875 -17.234375 Z M 15.21875 -13.796875 "/></g></g></g><g fill="#ffffff" fill-opacity="1"><g transform="translate(194.063892, 226.437729)"><g><path d="M 12.109375 0 L 9.546875 -4.84375 L 6.109375 -4.84375 L 6.109375 0 L 1.71875 0 L 1.71875 -17.234375 L 9.4375 -17.234375 C 11.71875 -17.234375 13.476562 -16.710938 14.71875 -15.671875 C 15.96875 -14.628906 16.59375 -13.148438 16.59375 -11.234375 C 16.59375 -8.566406 15.550781 -6.71875 13.46875 -5.6875 L 17.09375 0 Z M 6.109375 -8.296875 L 9.4375 -8.296875 C 10.382812 -8.296875 11.117188 -8.535156 11.640625 -9.015625 C 12.171875 -9.492188 12.4375 -10.179688 12.4375 -11.078125 C 12.4375 -11.960938 12.171875 -12.632812 11.640625 -13.09375 C 11.117188 -13.5625 10.382812 -13.796875 9.4375 -13.796875 L 6.109375 -13.796875 Z M 6.109375 -8.296875 "/></g></g></g><g fill="#ffffff" fill-opacity="1"><g transform="translate(214.081918, 226.437729)"><g><path d="M 9.90625 -17.390625 C 12.570312 -17.390625 14.789062 -16.554688 16.5625 -14.890625 C 18.34375 -13.222656 19.234375 -11.140625 19.234375 -8.640625 C 19.234375 -6.128906 18.34375 -4.023438 16.5625 -2.328125 C 14.78125 -0.640625 12.554688 0.203125 9.890625 0.203125 C 7.234375 0.203125 5.019531 -0.632812 3.25 -2.3125 C 1.476562 -4 0.59375 -6.109375 0.59375 -8.640625 C 0.59375 -11.148438 1.476562 -13.234375 3.25 -14.890625 C 5.019531 -16.554688 7.238281 -17.390625 9.90625 -17.390625 Z M 9.953125 -13.71875 C 8.597656 -13.71875 7.445312 -13.226562 6.5 -12.25 C 5.550781 -11.269531 5.078125 -10.054688 5.078125 -8.609375 C 5.078125 -7.171875 5.554688 -5.953125 6.515625 -4.953125 C 7.472656 -3.960938 8.613281 -3.46875 9.9375 -3.46875 C 11.269531 -3.46875 12.398438 -3.960938 13.328125 -4.953125 C 14.253906 -5.953125 14.71875 -7.171875 14.71875 -8.609375 C 14.71875 -10.054688 14.253906 -11.269531 13.328125 -12.25 C 12.398438 -13.226562 11.273438 -13.71875 9.953125 -13.71875 Z M 9.953125 -13.71875 "/></g></g></g><g fill="#cca23f" fill-opacity="1"><g transform="translate(98.312636, 242.683784)"><g><path d="M 1.171875 -8.6875 L 2.78125 -8.6875 L 2.78125 -1.359375 L 7.3125 -1.359375 L 7.3125 0 L 1.171875 0 Z M 1.171875 -8.6875 "/></g></g></g><g fill="#cca23f" fill-opacity="1"><g transform="translate(107.811076, 242.683784)"><g><path d="M 3.546875 -6.703125 C 4.523438 -6.703125 5.269531 -6.46875 5.78125 -6 C 6.300781 -5.53125 6.5625 -4.828125 6.5625 -3.890625 L 6.5625 0 L 5.09375 0 L 5.09375 -0.8125 C 4.90625 -0.519531 4.632812 -0.296875 4.28125 -0.140625 C 3.9375 0.015625 3.515625 0.09375 3.015625 0.09375 C 2.515625 0.09375 2.078125 0.0078125 1.703125 -0.15625 C 1.335938 -0.332031 1.050781 -0.570312 0.84375 -0.875 C 0.644531 -1.175781 0.546875 -1.515625 0.546875 -1.890625 C 0.546875 -2.492188 0.765625 -2.972656 1.203125 -3.328125 C 1.648438 -3.691406 2.347656 -3.875 3.296875 -3.875 L 5.015625 -3.875 L 5.015625 -3.96875 C 5.015625 -4.4375 4.875 -4.789062 4.59375 -5.03125 C 4.320312 -5.28125 3.910156 -5.40625 3.359375 -5.40625 C 2.984375 -5.40625 2.613281 -5.347656 2.25 -5.234375 C 1.894531 -5.117188 1.597656 -4.957031 1.359375 -4.75 L 0.75 -5.875 C 1.09375 -6.144531 1.507812 -6.347656 2 -6.484375 C 2.488281 -6.628906 3.003906 -6.703125 3.546875 -6.703125 Z M 3.34375 -1.046875 C 3.726562 -1.046875 4.070312 -1.132812 4.375 -1.3125 C 4.675781 -1.488281 4.890625 -1.742188 5.015625 -2.078125 L 5.015625 -2.84375 L 3.40625 -2.84375 C 2.519531 -2.84375 2.078125 -2.546875 2.078125 -1.953125 C 2.078125 -1.671875 2.1875 -1.445312 2.40625 -1.28125 C 2.625 -1.125 2.9375 -1.046875 3.34375 -1.046875 Z M 3.34375 -1.046875 "/></g></g></g><g fill="#cca23f" fill-opacity="1"><g transform="translate(117.408701, 242.683784)"><g><path d="M 7.21875 -6.625 L 4.125 0.53125 C 3.832031 1.25 3.476562 1.753906 3.0625 2.046875 C 2.644531 2.347656 2.144531 2.5 1.5625 2.5 C 1.226562 2.5 0.898438 2.441406 0.578125 2.328125 C 0.253906 2.222656 -0.00390625 2.078125 -0.203125 1.890625 L 0.40625 0.75 C 0.550781 0.882812 0.722656 0.992188 0.921875 1.078125 C 1.128906 1.160156 1.335938 1.203125 1.546875 1.203125 C 1.816406 1.203125 2.039062 1.128906 2.21875 0.984375 C 2.40625 0.847656 2.570312 0.613281 2.71875 0.28125 L 2.828125 0.03125 L -0.0625 -6.625 L 1.546875 -6.625 L 3.640625 -1.71875 L 5.734375 -6.625 Z M 7.21875 -6.625 "/></g></g></g><g fill="#cca23f" fill-opacity="1"><g transform="translate(126.646775, 242.683784)"><g><path d="M 7.25 -3.28125 C 7.25 -3.164062 7.238281 -3.007812 7.21875 -2.8125 L 2.015625 -2.8125 C 2.109375 -2.320312 2.347656 -1.9375 2.734375 -1.65625 C 3.117188 -1.375 3.597656 -1.234375 4.171875 -1.234375 C 4.898438 -1.234375 5.5 -1.472656 5.96875 -1.953125 L 6.796875 -1 C 6.503906 -0.632812 6.128906 -0.359375 5.671875 -0.171875 C 5.210938 0.00390625 4.695312 0.09375 4.125 0.09375 C 3.40625 0.09375 2.765625 -0.0507812 2.203125 -0.34375 C 1.648438 -0.632812 1.222656 -1.035156 0.921875 -1.546875 C 0.617188 -2.066406 0.46875 -2.65625 0.46875 -3.3125 C 0.46875 -3.957031 0.613281 -4.535156 0.90625 -5.046875 C 1.207031 -5.566406 1.617188 -5.972656 2.140625 -6.265625 C 2.660156 -6.554688 3.242188 -6.703125 3.890625 -6.703125 C 4.535156 -6.703125 5.113281 -6.554688 5.625 -6.265625 C 6.132812 -5.984375 6.53125 -5.582031 6.8125 -5.0625 C 7.101562 -4.550781 7.25 -3.957031 7.25 -3.28125 Z M 3.890625 -5.453125 C 3.398438 -5.453125 2.984375 -5.304688 2.640625 -5.015625 C 2.296875 -4.722656 2.085938 -4.332031 2.015625 -3.84375 L 5.765625 -3.84375 C 5.703125 -4.320312 5.5 -4.707031 5.15625 -5 C 4.820312 -5.300781 4.398438 -5.453125 3.890625 -5.453125 Z M 3.890625 -5.453125 "/></g></g></g><g fill="#cca23f" fill-opacity="1"><g transform="translate(136.43038, 242.683784)"><g><path d="M 2.5 -5.65625 C 2.9375 -6.351562 3.71875 -6.703125 4.84375 -6.703125 L 4.84375 -5.21875 C 4.71875 -5.25 4.597656 -5.265625 4.484375 -5.265625 C 3.878906 -5.265625 3.40625 -5.085938 3.0625 -4.734375 C 2.726562 -4.378906 2.5625 -3.875 2.5625 -3.21875 L 2.5625 0 L 1.015625 0 L 1.015625 -6.625 L 2.5 -6.625 Z M 2.5 -5.65625 "/></g></g></g><g fill="#cca23f" fill-opacity="1"><g transform="translate(143.709503, 242.683784)"><g><path d="M 7.921875 -1.359375 L 7.921875 0 L 0.515625 0 L 0.515625 -1.078125 L 5.625 -7.3125 L 0.59375 -7.3125 L 0.59375 -8.6875 L 7.75 -8.6875 L 7.75 -7.609375 L 2.640625 -1.359375 Z M 7.921875 -1.359375 "/></g></g></g><g fill="#cca23f" fill-opacity="1"><g transform="translate(154.001443, 242.683784)"><g><path d="M 7.25 -3.28125 C 7.25 -3.164062 7.238281 -3.007812 7.21875 -2.8125 L 2.015625 -2.8125 C 2.109375 -2.320312 2.347656 -1.9375 2.734375 -1.65625 C 3.117188 -1.375 3.597656 -1.234375 4.171875 -1.234375 C 4.898438 -1.234375 5.5 -1.472656 5.96875 -1.953125 L 6.796875 -1 C 6.503906 -0.632812 6.128906 -0.359375 5.671875 -0.171875 C 5.210938 0.00390625 4.695312 0.09375 4.125 0.09375 C 3.40625 0.09375 2.765625 -0.0507812 2.203125 -0.34375 C 1.648438 -0.632812 1.222656 -1.035156 0.921875 -1.546875 C 0.617188 -2.066406 0.46875 -2.65625 0.46875 -3.3125 C 0.46875 -3.957031 0.613281 -4.535156 0.90625 -5.046875 C 1.207031 -5.566406 1.617188 -5.972656 2.140625 -6.265625 C 2.660156 -6.554688 3.242188 -6.703125 3.890625 -6.703125 C 4.535156 -6.703125 5.113281 -6.554688 5.625 -6.265625 C 6.132812 -5.984375 6.53125 -5.582031 6.8125 -5.0625 C 7.101562 -4.550781 7.25 -3.957031 7.25 -3.28125 Z M 3.890625 -5.453125 C 3.398438 -5.453125 2.984375 -5.304688 2.640625 -5.015625 C 2.296875 -4.722656 2.085938 -4.332031 2.015625 -3.84375 L 5.765625 -3.84375 C 5.703125 -4.320312 5.5 -4.707031 5.15625 -5 C 4.820312 -5.300781 4.398438 -5.453125 3.890625 -5.453125 Z M 3.890625 -5.453125 "/></g></g></g><g fill="#cca23f" fill-opacity="1"><g transform="translate(163.785047, 242.683784)"><g><path d="M 2.5 -5.65625 C 2.9375 -6.351562 3.71875 -6.703125 4.84375 -6.703125 L 4.84375 -5.21875 C 4.71875 -5.25 4.597656 -5.265625 4.484375 -5.265625 C 3.878906 -5.265625 3.40625 -5.085938 3.0625 -4.734375 C 2.726562 -4.378906 2.5625 -3.875 2.5625 -3.21875 L 2.5625 0 L 1.015625 0 L 1.015625 -6.625 L 2.5 -6.625 Z M 2.5 -5.65625 "/></g></g></g><g fill="#cca23f" fill-opacity="1"><g transform="translate(171.06417, 242.683784)"><g><path d="M 4 0.09375 C 3.320312 0.09375 2.710938 -0.0507812 2.171875 -0.34375 C 1.640625 -0.632812 1.222656 -1.035156 0.921875 -1.546875 C 0.617188 -2.066406 0.46875 -2.65625 0.46875 -3.3125 C 0.46875 -3.96875 0.617188 -4.550781 0.921875 -5.0625 C 1.222656 -5.570312 1.640625 -5.972656 2.171875 -6.265625 C 2.710938 -6.554688 3.320312 -6.703125 4 -6.703125 C 4.675781 -6.703125 5.28125 -6.554688 5.8125 -6.265625 C 6.351562 -5.972656 6.773438 -5.570312 7.078125 -5.0625 C 7.378906 -4.550781 7.53125 -3.96875 7.53125 -3.3125 C 7.53125 -2.65625 7.378906 -2.066406 7.078125 -1.546875 C 6.773438 -1.035156 6.351562 -0.632812 5.8125 -0.34375 C 5.28125 -0.0507812 4.675781 0.09375 4 0.09375 Z M 4 -1.234375 C 4.5625 -1.234375 5.03125 -1.421875 5.40625 -1.796875 C 5.78125 -2.179688 5.96875 -2.6875 5.96875 -3.3125 C 5.96875 -3.9375 5.78125 -4.4375 5.40625 -4.8125 C 5.03125 -5.195312 4.5625 -5.390625 4 -5.390625 C 3.425781 -5.390625 2.953125 -5.195312 2.578125 -4.8125 C 2.210938 -4.4375 2.03125 -3.9375 2.03125 -3.3125 C 2.03125 -2.6875 2.210938 -2.179688 2.578125 -1.796875 C 2.953125 -1.421875 3.425781 -1.234375 4 -1.234375 Z M 4 -1.234375 "/></g></g></g><g fill="#cca23f" fill-opacity="1"><g transform="translate(181.132939, 242.683784)"><g/></g></g><g fill="#cca23f" fill-opacity="1"><g transform="translate(186.626692, 242.683784)"><g><path d="M 7.3125 -4.515625 C 7.800781 -4.359375 8.1875 -4.09375 8.46875 -3.71875 C 8.75 -3.351562 8.890625 -2.898438 8.890625 -2.359375 C 8.890625 -1.609375 8.597656 -1.023438 8.015625 -0.609375 C 7.429688 -0.203125 6.585938 0 5.484375 0 L 1.171875 0 L 1.171875 -8.6875 L 5.234375 -8.6875 C 6.265625 -8.6875 7.054688 -8.484375 7.609375 -8.078125 C 8.160156 -7.679688 8.4375 -7.128906 8.4375 -6.421875 C 8.4375 -5.992188 8.335938 -5.613281 8.140625 -5.28125 C 7.941406 -4.945312 7.664062 -4.691406 7.3125 -4.515625 Z M 2.78125 -7.421875 L 2.78125 -5.03125 L 5.0625 -5.03125 C 5.625 -5.03125 6.054688 -5.128906 6.359375 -5.328125 C 6.660156 -5.523438 6.8125 -5.820312 6.8125 -6.21875 C 6.8125 -6.613281 6.660156 -6.910156 6.359375 -7.109375 C 6.054688 -7.316406 5.625 -7.421875 5.0625 -7.421875 Z M 5.390625 -1.265625 C 6.628906 -1.265625 7.25 -1.679688 7.25 -2.515625 C 7.25 -3.347656 6.628906 -3.765625 5.390625 -3.765625 L 2.78125 -3.765625 L 2.78125 -1.265625 Z M 5.390625 -1.265625 "/></g></g></g><g fill="#cca23f" fill-opacity="1"><g transform="translate(198.133674, 242.683784)"><g><path d="M 1.015625 -9.203125 L 2.5625 -9.203125 L 2.5625 0 L 1.015625 0 Z M 1.015625 -9.203125 "/></g></g></g><g fill="#cca23f" fill-opacity="1"><g transform="translate(203.7886, 242.683784)"><g><path d="M 4 0.09375 C 3.320312 0.09375 2.710938 -0.0507812 2.171875 -0.34375 C 1.640625 -0.632812 1.222656 -1.035156 0.921875 -1.546875 C 0.617188 -2.066406 0.46875 -2.65625 0.46875 -3.3125 C 0.46875 -3.96875 0.617188 -4.550781 0.921875 -5.0625 C 1.222656 -5.570312 1.640625 -5.972656 2.171875 -6.265625 C 2.710938 -6.554688 3.320312 -6.703125 4 -6.703125 C 4.675781 -6.703125 5.28125 -6.554688 5.8125 -6.265625 C 6.351562 -5.972656 6.773438 -5.570312 7.078125 -5.0625 C 7.378906 -4.550781 7.53125 -3.96875 7.53125 -3.3125 C 7.53125 -2.65625 7.378906 -2.066406 7.078125 -1.546875 C 6.773438 -1.035156 6.351562 -0.632812 5.8125 -0.34375 C 5.28125 -0.0507812 4.675781 0.09375 4 0.09375 Z M 4 -1.234375 C 4.5625 -1.234375 5.03125 -1.421875 5.40625 -1.796875 C 5.78125 -2.179688 5.96875 -2.6875 5.96875 -3.3125 C 5.96875 -3.9375 5.78125 -4.4375 5.40625 -4.8125 C 5.03125 -5.195312 4.5625 -5.390625 4 -5.390625 C 3.425781 -5.390625 2.953125 -5.195312 2.578125 -4.8125 C 2.210938 -4.4375 2.03125 -3.9375 2.03125 -3.3125 C 2.03125 -2.6875 2.210938 -2.179688 2.578125 -1.796875 C 2.953125 -1.421875 3.425781 -1.234375 4 -1.234375 Z M 4 -1.234375 "/></g></g></g><g fill="#cca23f" fill-opacity="1"><g transform="translate(213.857363, 242.683784)"><g><path d="M 4.0625 0.09375 C 3.375 0.09375 2.753906 -0.0507812 2.203125 -0.34375 C 1.660156 -0.632812 1.234375 -1.035156 0.921875 -1.546875 C 0.617188 -2.066406 0.46875 -2.65625 0.46875 -3.3125 C 0.46875 -3.96875 0.617188 -4.550781 0.921875 -5.0625 C 1.234375 -5.570312 1.660156 -5.972656 2.203125 -6.265625 C 2.742188 -6.554688 3.363281 -6.703125 4.0625 -6.703125 C 4.707031 -6.703125 5.273438 -6.566406 5.765625 -6.296875 C 6.265625 -6.035156 6.640625 -5.65625 6.890625 -5.15625 L 5.6875 -4.46875 C 5.5 -4.769531 5.257812 -5 4.96875 -5.15625 C 4.6875 -5.3125 4.378906 -5.390625 4.046875 -5.390625 C 3.460938 -5.390625 2.976562 -5.195312 2.59375 -4.8125 C 2.21875 -4.4375 2.03125 -3.9375 2.03125 -3.3125 C 2.03125 -2.6875 2.21875 -2.179688 2.59375 -1.796875 C 2.96875 -1.421875 3.453125 -1.234375 4.046875 -1.234375 C 4.378906 -1.234375 4.6875 -1.3125 4.96875 -1.46875 C 5.257812 -1.625 5.5 -1.851562 5.6875 -2.15625 L 6.890625 -1.46875 C 6.628906 -0.96875 6.253906 -0.582031 5.765625 -0.3125 C 5.273438 -0.0390625 4.707031 0.09375 4.0625 0.09375 Z M 4.0625 0.09375 "/></g></g></g><g fill="#cca23f" fill-opacity="1"><g transform="translate(223.132627, 242.683784)"><g><path d="M 3.71875 -2.84375 L 2.5625 -1.75 L 2.5625 0 L 1.015625 0 L 1.015625 -9.203125 L 2.5625 -9.203125 L 2.5625 -3.640625 L 5.78125 -6.625 L 7.640625 -6.625 L 4.875 -3.84375 L 7.90625 0 L 6.015625 0 Z M 3.71875 -2.84375 "/></g></g></g><g fill="#cca23f" fill-opacity="1"><g transform="translate(233.089799, 242.683784)"><g><path d="M 4.0625 0.09375 C 3.375 0.09375 2.753906 -0.0507812 2.203125 -0.34375 C 1.660156 -0.632812 1.234375 -1.035156 0.921875 -1.546875 C 0.617188 -2.066406 0.46875 -2.65625 0.46875 -3.3125 C 0.46875 -3.96875 0.617188 -4.550781 0.921875 -5.0625 C 1.234375 -5.570312 1.660156 -5.972656 2.203125 -6.265625 C 2.742188 -6.554688 3.363281 -6.703125 4.0625 -6.703125 C 4.707031 -6.703125 5.273438 -6.566406 5.765625 -6.296875 C 6.265625 -6.035156 6.640625 -5.65625 6.890625 -5.15625 L 5.6875 -4.46875 C 5.5 -4.769531 5.257812 -5 4.96875 -5.15625 C 4.6875 -5.3125 4.378906 -5.390625 4.046875 -5.390625 C 3.460938 -5.390625 2.976562 -5.195312 2.59375 -4.8125 C 2.21875 -4.4375 2.03125 -3.9375 2.03125 -3.3125 C 2.03125 -2.6875 2.21875 -2.179688 2.59375 -1.796875 C 2.96875 -1.421875 3.453125 -1.234375 4.046875 -1.234375 C 4.378906 -1.234375 4.6875 -1.3125 4.96875 -1.46875 C 5.257812 -1.625 5.5 -1.851562 5.6875 -2.15625 L 6.890625 -1.46875 C 6.628906 -0.96875 6.253906 -0.582031 5.765625 -0.3125 C 5.273438 -0.0390625 4.707031 0.09375 4.0625 0.09375 Z M 4.0625 0.09375 "/></g></g></g><g fill="#cca23f" fill-opacity="1"><g transform="translate(242.365063, 242.683784)"><g><path d="M 4.78125 -6.703125 C 5.613281 -6.703125 6.28125 -6.457031 6.78125 -5.96875 C 7.289062 -5.476562 7.546875 -4.753906 7.546875 -3.796875 L 7.546875 0 L 6 0 L 6 -3.59375 C 6 -4.175781 5.859375 -4.613281 5.578125 -4.90625 C 5.304688 -5.195312 4.921875 -5.34375 4.421875 -5.34375 C 3.847656 -5.34375 3.394531 -5.171875 3.0625 -4.828125 C 2.726562 -4.484375 2.5625 -3.988281 2.5625 -3.34375 L 2.5625 0 L 1.015625 0 L 1.015625 -9.203125 L 2.5625 -9.203125 L 2.5625 -5.859375 C 2.820312 -6.128906 3.140625 -6.335938 3.515625 -6.484375 C 3.890625 -6.628906 4.3125 -6.703125 4.78125 -6.703125 Z M 4.78125 -6.703125 "/></g></g></g><g fill="#cca23f" fill-opacity="1"><g transform="translate(252.929767, 242.683784)"><g><path d="M 3.546875 -6.703125 C 4.523438 -6.703125 5.269531 -6.46875 5.78125 -6 C 6.300781 -5.53125 6.5625 -4.828125 6.5625 -3.890625 L 6.5625 0 L 5.09375 0 L 5.09375 -0.8125 C 4.90625 -0.519531 4.632812 -0.296875 4.28125 -0.140625 C 3.9375 0.015625 3.515625 0.09375 3.015625 0.09375 C 2.515625 0.09375 2.078125 0.0078125 1.703125 -0.15625 C 1.335938 -0.332031 1.050781 -0.570312 0.84375 -0.875 C 0.644531 -1.175781 0.546875 -1.515625 0.546875 -1.890625 C 0.546875 -2.492188 0.765625 -2.972656 1.203125 -3.328125 C 1.648438 -3.691406 2.347656 -3.875 3.296875 -3.875 L 5.015625 -3.875 L 5.015625 -3.96875 C 5.015625 -4.4375 4.875 -4.789062 4.59375 -5.03125 C 4.320312 -5.28125 3.910156 -5.40625 3.359375 -5.40625 C 2.984375 -5.40625 2.613281 -5.347656 2.25 -5.234375 C 1.894531 -5.117188 1.597656 -4.957031 1.359375 -4.75 L 0.75 -5.875 C 1.09375 -6.144531 1.507812 -6.347656 2 -6.484375 C 2.488281 -6.628906 3.003906 -6.703125 3.546875 -6.703125 Z M 3.34375 -1.046875 C 3.726562 -1.046875 4.070312 -1.132812 4.375 -1.3125 C 4.675781 -1.488281 4.890625 -1.742188 5.015625 -2.078125 L 5.015625 -2.84375 L 3.40625 -2.84375 C 2.519531 -2.84375 2.078125 -2.546875 2.078125 -1.953125 C 2.078125 -1.671875 2.1875 -1.445312 2.40625 -1.28125 C 2.625 -1.125 2.9375 -1.046875 3.34375 -1.046875 Z M 3.34375 -1.046875 "/></g></g></g><g fill="#cca23f" fill-opacity="1"><g transform="translate(262.527389, 242.683784)"><g><path d="M 1.015625 -6.625 L 2.5625 -6.625 L 2.5625 0 L 1.015625 0 Z M 1.796875 -7.71875 C 1.515625 -7.71875 1.273438 -7.804688 1.078125 -7.984375 C 0.890625 -8.160156 0.796875 -8.378906 0.796875 -8.640625 C 0.796875 -8.910156 0.890625 -9.132812 1.078125 -9.3125 C 1.273438 -9.488281 1.515625 -9.578125 1.796875 -9.578125 C 2.078125 -9.578125 2.3125 -9.488281 2.5 -9.3125 C 2.6875 -9.144531 2.78125 -8.9375 2.78125 -8.6875 C 2.78125 -8.414062 2.6875 -8.1875 2.5 -8 C 2.320312 -7.8125 2.085938 -7.71875 1.796875 -7.71875 Z M 1.796875 -7.71875 "/></g></g></g><g fill="#cca23f" fill-opacity="1"><g transform="translate(268.182315, 242.683784)"><g><path d="M 4.78125 -6.703125 C 5.613281 -6.703125 6.28125 -6.457031 6.78125 -5.96875 C 7.289062 -5.476562 7.546875 -4.753906 7.546875 -3.796875 L 7.546875 0 L 6 0 L 6 -3.59375 C 6 -4.175781 5.859375 -4.613281 5.578125 -4.90625 C 5.304688 -5.195312 4.921875 -5.34375 4.421875 -5.34375 C 3.847656 -5.34375 3.394531 -5.171875 3.0625 -4.828125 C 2.726562 -4.484375 2.5625 -3.988281 2.5625 -3.34375 L 2.5625 0 L 1.015625 0 L 1.015625 -6.625 L 2.5 -6.625 L 2.5 -5.765625 C 2.75 -6.078125 3.066406 -6.3125 3.453125 -6.46875 C 3.847656 -6.625 4.289062 -6.703125 4.78125 -6.703125 Z M 4.78125 -6.703125 "/></g></g></g></svg>